<svg id="Слой_1" data-name="Слой 1" xmlns="http://www.w3.org/2000/svg" viewBox="0 0 227.3 227.3"><title>regtool</title><path d="M135,155.4c13.6,20.1,57.9,63.9,78.5,78.4,4.7,4.7,31.3-21.9,26.6-26.6-14.5-20.5-58.4-64.9-78.5-78.5Z" transform="translate(-20.3 -13.8)" style="fill:#007ba0"/><circle cx="29.2" cy="29.3" r="24" style="fill:none;stroke:#ff8700;stroke-miterlimit:10;stroke-width:0.5px"/><path d="M21.1,48.6,50.8,78.3a24,24,0,0,0,34-34L83,42.6l-27.9-28c18.4-2.8,22.1.6,40.4,19A39.2,39.2,0,0,1,40.1,89C22.4,71.4,18.3,67,21.1,48.6Z" transform="translate(-20.3 -13.8)" style="fill:#007ba0"/><circle cx="29.2" cy="29.3" r="18" style="fill:none;stroke:#ff8700;stroke-miterlimit:10"/><circle cx="29.2" cy="29.3" r="12" style="fill:none;stroke:#ff8700;stroke-miterlimit:10;stroke-width:2px"/><circle cx="29.2" cy="29.3" r="5" style="fill:#ff8700"/><polygon points="35.5 35.5 94.2 215.8 124.6 143 164.9 183.3 183.3 164.9 142.9 124.6 215.8 94.2 35.5 35.5" style="fill:#fff;stroke:#007ba0;stroke-miterlimit:10;stroke-width:8px"/><path d="M229.4,77" transform="translate(-20.3 -13.8)" style="fill:none;stroke:#000;stroke-miterlimit:10"/></svg>