<?xml version="1.0" standalone="no"?>
<!DOCTYPE svg PUBLIC "-//W3C//DTD SVG 20010904//EN"
 "http://www.w3.org/TR/2001/REC-SVG-20010904/DTD/svg10.dtd">
<svg version="1.0" xmlns="http://www.w3.org/2000/svg"
 width="700.000000pt" height="700.000000pt" viewBox="0 0 700.000000 700.000000"
 preserveAspectRatio="xMidYMid meet">
<metadata>
Created by potrace 1.14, written by Peter Selinger 2001-2017
</metadata>
<g transform="translate(0.000000,700.000000) scale(0.100000,-0.100000)"
fill="#000000" stroke="none">
<path d="M1208 6995 c-1 -1 -30 -6 -63 -10 -33 -3 -62 -9 -65 -11 -2 -3 57
-66 131 -140 75 -74 134 -134 131 -134 -2 0 -17 9 -32 20 -16 11 -55 33 -87
49 -304 151 -680 69 -899 -197 -52 -63 -128 -201 -138 -252 -3 -14 -12 -53
-20 -88 -20 -91 -13 -237 17 -347 12 -43 46 -119 75 -165 31 -51 24 -45 -97
75 -72 71 -132 127 -134 125 -10 -11 -20 -124 -22 -250 -4 -247 54 -389 254
-622 103 -121 420 -429 483 -471 217 -142 435 -211 689 -216 41 -1 17 60 199
-501 67 -206 130 -400 140 -430 10 -30 69 -210 130 -400 62 -190 124 -383 140
-430 16 -47 83 -254 150 -460 67 -206 143 -440 170 -520 26 -80 84 -260 130
-400 45 -140 94 -293 110 -340 65 -196 153 -466 154 -475 10 -47 131 -393 137
-388 4 5 39 87 79 183 40 96 80 193 90 215 10 22 57 135 105 250 48 116 109
262 135 325 140 332 373 892 425 1020 12 30 30 73 40 95 10 22 21 49 26 60 24
62 34 85 40 85 3 0 41 -41 85 -92 332 -384 892 -950 1378 -1393 6 -6 47 -42
91 -80 44 -39 82 -72 85 -75 3 -3 34 -30 70 -60 36 -30 67 -57 70 -60 3 -3 28
-23 55 -45 28 -21 52 -42 55 -45 3 -4 60 -48 126 -98 93 -70 129 -92 153 -92
96 0 269 118 473 323 158 159 264 301 300 404 23 66 19 80 -40 158 -213 281
-431 532 -822 945 -256 270 -720 722 -955 931 -27 24 -52 46 -55 49 -3 3 -41
38 -86 76 l-81 71 91 38 c50 21 138 58 196 82 58 24 114 48 125 53 11 5 427
179 925 386 498 207 909 380 914 384 4 4 -3 11 -15 15 -25 7 -708 229 -834
270 -73 24 -797 260 -1065 347 -85 27 -193 63 -240 78 -47 16 -247 81 -445
145 -347 112 -518 168 -840 273 -160 53 -778 254 -857 279 -45 14 -48 17 -49
52 -5 262 -90 520 -237 716 -67 90 -400 421 -515 512 -125 100 -252 169 -347
188 -35 8 -325 16 -332 10z m-123 -190 c311 -83 533 -361 544 -681 2 -78 -11
-181 -29 -228 l-8 -23 -75 25 -75 24 13 54 c18 79 12 216 -14 293 -78 234
-287 392 -523 394 -46 0 -103 -3 -128 -7 -263 -45 -470 -306 -459 -579 11
-265 208 -493 466 -538 71 -13 211 -7 255 10 27 10 27 10 51 -67 26 -87 27
-86 -52 -98 -20 -3 -39 -8 -43 -10 -11 -7 -200 -6 -228 1 -14 3 -36 8 -50 11
-118 23 -282 119 -365 213 -16 19 -35 39 -41 45 -29 30 -94 154 -119 228 -23
69 -29 103 -31 203 -4 121 7 188 49 300 14 39 73 145 86 155 3 3 23 26 43 52
89 110 287 220 423 235 28 3 52 8 55 10 10 10 196 -6 255 -22z m-30 -191 c219
-70 371 -268 380 -495 3 -84 -12 -179 -28 -179 -6 0 -37 8 -69 17 -45 14 -57
21 -52 33 4 8 8 48 10 87 5 120 -34 222 -116 303 -47 46 -129 94 -180 106 -14
3 -52 7 -85 8 -242 11 -431 -187 -411 -432 18 -228 240 -401 460 -357 65 13
56 20 92 -78 13 -37 13 -38 -14 -49 -15 -6 -70 -12 -122 -14 -165 -6 -286 42
-400 157 -78 78 -114 141 -140 245 -60 234 46 482 255 599 59 33 142 61 200
67 58 7 171 -3 220 -18z m1026 -670 c37 -57 87 -172 103 -236 6 -26 5 -27 -21
-18 -16 5 -143 46 -283 91 -140 44 -258 84 -262 88 -4 4 -3 22 2 41 18 60 24
112 23 205 -1 133 -45 280 -115 385 -18 26 83 -68 241 -225 162 -161 288 -295
312 -331z m-1046 462 c93 -43 160 -118 188 -211 16 -55 15 -171 -1 -187 -7 -7
-35 -2 -91 17 l-81 27 0 44 c0 158 -203 213 -283 77 -58 -101 16 -227 133
-226 43 0 50 -3 59 -26 25 -65 44 -141 37 -148 -4 -5 -49 -8 -99 -8 -79 1 -99
5 -142 27 -185 96 -248 316 -139 489 27 43 93 101 140 124 80 38 198 38 279 1z
m-497 -959 c53 -34 137 -65 216 -81 113 -23 228 -18 365 16 10 2 35 -62 93
-237 86 -262 108 -335 104 -335 -1 0 -27 7 -57 16 -75 22 -165 65 -224 108
-40 29 -545 523 -545 533 0 7 13 2 48 -20z"/>
</g>
</svg>
